<mxfile host="app.diagrams.net" agent="Mozilla/5.0 (Windows NT 10.0; Win64; x64) AppleWebKit/537.36 (KHTML, like Gecko) Chrome/132.0.0.0 YaBrowser/25.2.0.0 Safari/537.36" version="26.2.14">
  <diagram name="Страница — 1" id="5o0nA7FV0MhEvLhmFP9w">
    <mxGraphModel dx="2037" dy="2306" grid="1" gridSize="10" guides="1" tooltips="1" connect="1" arrows="1" fold="1" page="1" pageScale="1" pageWidth="827" pageHeight="1169" math="0" shadow="0">
      <root>
        <mxCell id="0" />
        <mxCell id="1" parent="0" />
        <mxCell id="Wzd05YAp9pM7tJVJk9kT-8" style="edgeStyle=orthogonalEdgeStyle;rounded=0;orthogonalLoop=1;jettySize=auto;html=1;entryX=0;entryY=0.5;entryDx=0;entryDy=0;" parent="1" source="Wzd05YAp9pM7tJVJk9kT-3" target="Wzd05YAp9pM7tJVJk9kT-7" edge="1">
          <mxGeometry relative="1" as="geometry" />
        </mxCell>
        <mxCell id="Wzd05YAp9pM7tJVJk9kT-3" value="Ученик" style="shape=umlActor;verticalLabelPosition=bottom;verticalAlign=top;html=1;outlineConnect=0;" parent="1" vertex="1">
          <mxGeometry x="250" y="-719" width="30" height="60" as="geometry" />
        </mxCell>
        <mxCell id="Wzd05YAp9pM7tJVJk9kT-12" value="" style="edgeStyle=orthogonalEdgeStyle;rounded=0;orthogonalLoop=1;jettySize=auto;html=1;entryX=0.5;entryY=1;entryDx=0;entryDy=0;" parent="1" source="Wzd05YAp9pM7tJVJk9kT-7" target="Wzd05YAp9pM7tJVJk9kT-11" edge="1">
          <mxGeometry relative="1" as="geometry">
            <mxPoint x="624" y="-729" as="targetPoint" />
            <Array as="points">
              <mxPoint x="624" y="-689" />
            </Array>
          </mxGeometry>
        </mxCell>
        <mxCell id="Wzd05YAp9pM7tJVJk9kT-7" value="Логин" style="rounded=0;whiteSpace=wrap;html=1;" parent="1" vertex="1">
          <mxGeometry x="370" y="-719" width="120" height="60" as="geometry" />
        </mxCell>
        <mxCell id="Wzd05YAp9pM7tJVJk9kT-10" value="Регистрация" style="rounded=0;whiteSpace=wrap;html=1;" parent="1" vertex="1">
          <mxGeometry x="370" y="-579" width="120" height="60" as="geometry" />
        </mxCell>
        <mxCell id="Wzd05YAp9pM7tJVJk9kT-36" style="edgeStyle=orthogonalEdgeStyle;rounded=0;orthogonalLoop=1;jettySize=auto;html=1;exitX=0.5;exitY=0;exitDx=0;exitDy=0;entryX=0.5;entryY=1;entryDx=0;entryDy=0;" parent="1" source="Wzd05YAp9pM7tJVJk9kT-11" edge="1" target="zt1CgaJMKVYSrlYPlvOR-3">
          <mxGeometry relative="1" as="geometry">
            <mxPoint x="624" y="-909" as="targetPoint" />
          </mxGeometry>
        </mxCell>
        <mxCell id="bedEnDc0arVoKkhbVb1m-2" style="edgeStyle=orthogonalEdgeStyle;rounded=0;orthogonalLoop=1;jettySize=auto;html=1;entryX=0.5;entryY=1;entryDx=0;entryDy=0;" edge="1" parent="1" source="Wzd05YAp9pM7tJVJk9kT-11" target="bedEnDc0arVoKkhbVb1m-1">
          <mxGeometry relative="1" as="geometry" />
        </mxCell>
        <mxCell id="Wzd05YAp9pM7tJVJk9kT-11" value="&lt;div style=&quot;&quot;&gt;&lt;span style=&quot;background-color: initial;&quot;&gt;Главная.&lt;/span&gt;&lt;/div&gt;&lt;div style=&quot;&quot;&gt;&lt;span style=&quot;background-color: initial;&quot;&gt;все темы, которые были добавленны&lt;/span&gt;&lt;/div&gt;" style="rounded=0;whiteSpace=wrap;html=1;align=center;" parent="1" vertex="1">
          <mxGeometry x="426" y="-809" width="396" height="60" as="geometry" />
        </mxCell>
        <mxCell id="Wzd05YAp9pM7tJVJk9kT-14" value="" style="endArrow=none;dashed=1;html=1;dashPattern=1 3;strokeWidth=2;rounded=0;entryX=0.5;entryY=1;entryDx=0;entryDy=0;exitX=0.5;exitY=0;exitDx=0;exitDy=0;" parent="1" source="Wzd05YAp9pM7tJVJk9kT-10" target="Wzd05YAp9pM7tJVJk9kT-7" edge="1">
          <mxGeometry width="50" height="50" relative="1" as="geometry">
            <mxPoint x="600" y="-529" as="sourcePoint" />
            <mxPoint x="650" y="-579" as="targetPoint" />
          </mxGeometry>
        </mxCell>
        <mxCell id="_16jkD-GpWcfrMRBFpo_-1" style="edgeStyle=orthogonalEdgeStyle;rounded=0;orthogonalLoop=1;jettySize=auto;html=1;entryX=0.5;entryY=1;entryDx=0;entryDy=0;" parent="1" source="Wzd05YAp9pM7tJVJk9kT-15" target="Wzd05YAp9pM7tJVJk9kT-53" edge="1">
          <mxGeometry relative="1" as="geometry">
            <Array as="points">
              <mxPoint x="997" y="-489" />
              <mxPoint x="997" y="-489" />
            </Array>
            <mxPoint x="570" y="-229" as="targetPoint" />
          </mxGeometry>
        </mxCell>
        <mxCell id="Wzd05YAp9pM7tJVJk9kT-15" value="Главная&amp;nbsp;&lt;div&gt;Добавление групп.&lt;br&gt;Выбор существующих групп&lt;/div&gt;" style="rounded=0;whiteSpace=wrap;html=1;" parent="1" vertex="1">
          <mxGeometry x="784" y="-569" width="426" height="60" as="geometry" />
        </mxCell>
        <mxCell id="Wzd05YAp9pM7tJVJk9kT-48" value="Invalid password" style="rounded=0;whiteSpace=wrap;html=1;" parent="1" vertex="1">
          <mxGeometry x="220" y="-579" width="120" height="60" as="geometry" />
        </mxCell>
        <mxCell id="Wzd05YAp9pM7tJVJk9kT-49" value="" style="endArrow=none;dashed=1;html=1;dashPattern=1 3;strokeWidth=2;rounded=0;entryX=0.5;entryY=1;entryDx=0;entryDy=0;exitX=0.5;exitY=0;exitDx=0;exitDy=0;" parent="1" source="Wzd05YAp9pM7tJVJk9kT-48" target="Wzd05YAp9pM7tJVJk9kT-7" edge="1">
          <mxGeometry width="50" height="50" relative="1" as="geometry">
            <mxPoint x="600" y="-589" as="sourcePoint" />
            <mxPoint x="650" y="-639" as="targetPoint" />
          </mxGeometry>
        </mxCell>
        <mxCell id="zt1CgaJMKVYSrlYPlvOR-12" value="" style="edgeStyle=orthogonalEdgeStyle;rounded=0;orthogonalLoop=1;jettySize=auto;html=1;" parent="1" source="Wzd05YAp9pM7tJVJk9kT-53" target="zt1CgaJMKVYSrlYPlvOR-11" edge="1">
          <mxGeometry relative="1" as="geometry">
            <Array as="points">
              <mxPoint x="1000" y="-349" />
              <mxPoint x="1000" y="-349" />
            </Array>
          </mxGeometry>
        </mxCell>
        <mxCell id="Wzd05YAp9pM7tJVJk9kT-53" value="Проверка практических заданий" style="rounded=1;whiteSpace=wrap;html=1;direction=west;" parent="1" vertex="1">
          <mxGeometry x="937" y="-439" width="120" height="60" as="geometry" />
        </mxCell>
        <mxCell id="Wzd05YAp9pM7tJVJk9kT-68" value="Данный пользователь уже существует&amp;nbsp;" style="rounded=0;whiteSpace=wrap;html=1;" parent="1" vertex="1">
          <mxGeometry x="370" y="-449" width="120" height="60" as="geometry" />
        </mxCell>
        <mxCell id="Wzd05YAp9pM7tJVJk9kT-69" value="" style="endArrow=none;dashed=1;html=1;dashPattern=1 3;strokeWidth=2;rounded=0;entryX=0.5;entryY=1;entryDx=0;entryDy=0;exitX=0.5;exitY=0;exitDx=0;exitDy=0;" parent="1" source="Wzd05YAp9pM7tJVJk9kT-68" target="Wzd05YAp9pM7tJVJk9kT-10" edge="1">
          <mxGeometry width="50" height="50" relative="1" as="geometry">
            <mxPoint x="870" y="-579" as="sourcePoint" />
            <mxPoint x="920" y="-629" as="targetPoint" />
          </mxGeometry>
        </mxCell>
        <mxCell id="Wzd05YAp9pM7tJVJk9kT-85" style="edgeStyle=orthogonalEdgeStyle;rounded=0;orthogonalLoop=1;jettySize=auto;html=1;" parent="1" source="Wzd05YAp9pM7tJVJk9kT-74" target="Wzd05YAp9pM7tJVJk9kT-75" edge="1">
          <mxGeometry relative="1" as="geometry">
            <Array as="points">
              <mxPoint x="1580" y="-639" />
              <mxPoint x="1580" y="-639" />
            </Array>
          </mxGeometry>
        </mxCell>
        <mxCell id="Wzd05YAp9pM7tJVJk9kT-74" value="Учитель" style="shape=umlActor;verticalLabelPosition=bottom;verticalAlign=top;html=1;outlineConnect=0;" parent="1" vertex="1">
          <mxGeometry x="1610" y="-679" width="30" height="60" as="geometry" />
        </mxCell>
        <mxCell id="Wzd05YAp9pM7tJVJk9kT-86" style="edgeStyle=orthogonalEdgeStyle;rounded=0;orthogonalLoop=1;jettySize=auto;html=1;entryX=0.5;entryY=0;entryDx=0;entryDy=0;" parent="1" source="Wzd05YAp9pM7tJVJk9kT-75" target="Wzd05YAp9pM7tJVJk9kT-15" edge="1">
          <mxGeometry relative="1" as="geometry" />
        </mxCell>
        <mxCell id="Wzd05YAp9pM7tJVJk9kT-75" value="Логин" style="rounded=0;whiteSpace=wrap;html=1;" parent="1" vertex="1">
          <mxGeometry x="1370" y="-669" width="120" height="60" as="geometry" />
        </mxCell>
        <mxCell id="Wzd05YAp9pM7tJVJk9kT-76" value="Регистрация" style="rounded=0;whiteSpace=wrap;html=1;" parent="1" vertex="1">
          <mxGeometry x="1470" y="-569" width="120" height="60" as="geometry" />
        </mxCell>
        <mxCell id="Wzd05YAp9pM7tJVJk9kT-77" value="" style="endArrow=none;dashed=1;html=1;dashPattern=1 3;strokeWidth=2;rounded=0;entryX=0.5;entryY=1;entryDx=0;entryDy=0;exitX=0.5;exitY=0;exitDx=0;exitDy=0;" parent="1" source="Wzd05YAp9pM7tJVJk9kT-76" target="Wzd05YAp9pM7tJVJk9kT-75" edge="1">
          <mxGeometry width="50" height="50" relative="1" as="geometry">
            <mxPoint x="1920" y="-479" as="sourcePoint" />
            <mxPoint x="1970" y="-529" as="targetPoint" />
          </mxGeometry>
        </mxCell>
        <mxCell id="Wzd05YAp9pM7tJVJk9kT-78" value="Invalid password" style="rounded=0;whiteSpace=wrap;html=1;" parent="1" vertex="1">
          <mxGeometry x="1300" y="-569" width="120" height="60" as="geometry" />
        </mxCell>
        <mxCell id="Wzd05YAp9pM7tJVJk9kT-79" value="" style="endArrow=none;dashed=1;html=1;dashPattern=1 3;strokeWidth=2;rounded=0;entryX=0.5;entryY=1;entryDx=0;entryDy=0;exitX=0.5;exitY=0;exitDx=0;exitDy=0;" parent="1" source="Wzd05YAp9pM7tJVJk9kT-78" target="Wzd05YAp9pM7tJVJk9kT-75" edge="1">
          <mxGeometry width="50" height="50" relative="1" as="geometry">
            <mxPoint x="1920" y="-539" as="sourcePoint" />
            <mxPoint x="1970" y="-589" as="targetPoint" />
          </mxGeometry>
        </mxCell>
        <mxCell id="Wzd05YAp9pM7tJVJk9kT-80" value="(admin only)&lt;br&gt;Добавление учителей&amp;nbsp;" style="rounded=0;whiteSpace=wrap;html=1;" parent="1" vertex="1">
          <mxGeometry x="1470" y="-459" width="120" height="60" as="geometry" />
        </mxCell>
        <mxCell id="Wzd05YAp9pM7tJVJk9kT-81" value="" style="endArrow=none;dashed=1;html=1;dashPattern=1 3;strokeWidth=2;rounded=0;entryX=0.5;entryY=1;entryDx=0;entryDy=0;exitX=0.5;exitY=0;exitDx=0;exitDy=0;" parent="1" source="Wzd05YAp9pM7tJVJk9kT-80" target="Wzd05YAp9pM7tJVJk9kT-76" edge="1">
          <mxGeometry width="50" height="50" relative="1" as="geometry">
            <mxPoint x="2190" y="-529" as="sourcePoint" />
            <mxPoint x="2240" y="-579" as="targetPoint" />
          </mxGeometry>
        </mxCell>
        <mxCell id="zt1CgaJMKVYSrlYPlvOR-4" style="edgeStyle=orthogonalEdgeStyle;rounded=0;orthogonalLoop=1;jettySize=auto;html=1;exitX=0.5;exitY=0;exitDx=0;exitDy=0;entryX=0.5;entryY=1;entryDx=0;entryDy=0;" parent="1" source="zt1CgaJMKVYSrlYPlvOR-3" edge="1" target="zt1CgaJMKVYSrlYPlvOR-5">
          <mxGeometry relative="1" as="geometry">
            <mxPoint x="624" y="-1059" as="targetPoint" />
          </mxGeometry>
        </mxCell>
        <mxCell id="zt1CgaJMKVYSrlYPlvOR-3" value="Тест на определенную тему" style="rounded=0;whiteSpace=wrap;html=1;" parent="1" vertex="1">
          <mxGeometry x="440" y="-959" width="120" height="60" as="geometry" />
        </mxCell>
        <mxCell id="zt1CgaJMKVYSrlYPlvOR-5" value="Практическое задание на заданную тему" style="rounded=0;whiteSpace=wrap;html=1;" parent="1" vertex="1">
          <mxGeometry x="428" y="-1149" width="144" height="90" as="geometry" />
        </mxCell>
        <mxCell id="zt1CgaJMKVYSrlYPlvOR-16" value="" style="edgeStyle=orthogonalEdgeStyle;rounded=0;orthogonalLoop=1;jettySize=auto;html=1;" parent="1" source="zt1CgaJMKVYSrlYPlvOR-11" target="zt1CgaJMKVYSrlYPlvOR-15" edge="1">
          <mxGeometry relative="1" as="geometry" />
        </mxCell>
        <mxCell id="zt1CgaJMKVYSrlYPlvOR-11" value="Список фамилий учеников" style="whiteSpace=wrap;html=1;rounded=1;" parent="1" vertex="1">
          <mxGeometry x="937" y="-329" width="120" height="60" as="geometry" />
        </mxCell>
        <mxCell id="zt1CgaJMKVYSrlYPlvOR-18" value="" style="edgeStyle=orthogonalEdgeStyle;rounded=0;orthogonalLoop=1;jettySize=auto;html=1;" parent="1" source="zt1CgaJMKVYSrlYPlvOR-15" target="zt1CgaJMKVYSrlYPlvOR-17" edge="1">
          <mxGeometry relative="1" as="geometry" />
        </mxCell>
        <mxCell id="zt1CgaJMKVYSrlYPlvOR-15" value="Список тем, которые существует + которые&amp;nbsp; сделал ученик" style="whiteSpace=wrap;html=1;rounded=1;" parent="1" vertex="1">
          <mxGeometry x="937" y="-229" width="120" height="60" as="geometry" />
        </mxCell>
        <mxCell id="zt1CgaJMKVYSrlYPlvOR-17" value="Страница с ответом на практику + с ФИО + с баллом за тест + текст с заданием + место где выставит оценку за практику" style="whiteSpace=wrap;html=1;rounded=1;" parent="1" vertex="1">
          <mxGeometry x="922" y="-139" width="150" height="120" as="geometry" />
        </mxCell>
        <mxCell id="bedEnDc0arVoKkhbVb1m-1" value="Теория на определенную тему" style="rounded=0;whiteSpace=wrap;html=1;" vertex="1" parent="1">
          <mxGeometry x="664" y="-959" width="120" height="60" as="geometry" />
        </mxCell>
      </root>
    </mxGraphModel>
  </diagram>
</mxfile>
